<?xml version="1.0" encoding="UTF-8" standalone="no"?><svg xmlns="http://www.w3.org/2000/svg" xmlns:xlink="http://www.w3.org/1999/xlink" contentScriptType="application/ecmascript" contentStyleType="text/css" height="800px" preserveAspectRatio="none" style="width:350px;height:800px;background:#FFFFFF;" version="1.1" viewBox="0 0 350 800" width="350px" zoomAndPan="magnify"><defs><filter height="300%" id="f1902w3fozq30x" width="300%" x="-1" y="-1"><feGaussianBlur result="blurOut" stdDeviation="2.0"/><feColorMatrix in="blurOut" result="blurOut2" type="matrix" values="0 0 0 0 0 0 0 0 0 0 0 0 0 0 0 0 0 0 .4 0"/><feOffset dx="4.0" dy="4.0" in="blurOut2" result="blurOut3"/><feBlend in="SourceGraphic" in2="blurOut3" mode="normal"/></filter></defs><g><!--MD5=[99b31deea5d7419a569cd5090bf83263]
cluster System--><rect fill="#FFFFFF" filter="url(#f1902w3fozq30x)" height="84" style="stroke:#000000;stroke-width:1.5;" width="110" x="17.5" y="289"/><text fill="#000000" font-family="sans-serif" font-size="14" font-weight="bold" lengthAdjust="spacing" textLength="50" x="47.5" y="305.5332">System</text><ellipse cx="72.5624" cy="340.9517" fill="#FEFECE" filter="url(#f1902w3fozq30x)" rx="39.0624" ry="15.4517" style="stroke:#A80036;stroke-width:1.5;"/><text fill="#000000" font-family="sans-serif" font-size="14" lengthAdjust="spacing" textLength="39" x="53.0624" y="344.6802">EZWH</text><!--MD5=[190701d7c3184db8c39180fcb79a864d]
entity WarehouseManager--><ellipse cx="72.5" cy="14" fill="#FEFECE" filter="url(#f1902w3fozq30x)" rx="8" ry="8" style="stroke:#A80036;stroke-width:1.5;"/><path d="M72.5,22 L72.5,49 M59.5,30 L85.5,30 M72.5,49 L59.5,64 M72.5,49 L85.5,64 " fill="none" filter="url(#f1902w3fozq30x)" style="stroke:#A80036;stroke-width:1.5;"/><text fill="#000000" font-family="sans-serif" font-size="14" lengthAdjust="spacing" textLength="133" x="6" y="84.0332">Warehouse Manager</text><!--MD5=[220688a6c8434ae3c4ee799a7609797d]
entity RetailerManager--><ellipse cx="271" cy="132" fill="#FEFECE" filter="url(#f1902w3fozq30x)" rx="8" ry="8" style="stroke:#A80036;stroke-width:1.5;"/><path d="M271,140 L271,167 M258,148 L284,148 M271,167 L258,182 M271,167 L284,182 " fill="none" filter="url(#f1902w3fozq30x)" style="stroke:#A80036;stroke-width:1.5;"/><text fill="#000000" font-family="sans-serif" font-size="14" lengthAdjust="spacing" textLength="109" x="216.5" y="202.0332">Retailer Manager</text><!--MD5=[9166ecabb6870654d1e02eb31ea32179]
entity QualityOffice--><ellipse cx="271" cy="250" fill="#FEFECE" filter="url(#f1902w3fozq30x)" rx="8" ry="8" style="stroke:#A80036;stroke-width:1.5;"/><path d="M271,258 L271,285 M258,266 L284,266 M271,285 L258,300 M271,285 L284,300 " fill="none" filter="url(#f1902w3fozq30x)" style="stroke:#A80036;stroke-width:1.5;"/><text fill="#000000" font-family="sans-serif" font-size="14" lengthAdjust="spacing" textLength="85" x="228.5" y="320.0332">Quality Office</text><!--MD5=[aee6c901d055a7746860d8c01c3e3057]
entity WarehouseWorker--><ellipse cx="271" cy="14" fill="#FEFECE" filter="url(#f1902w3fozq30x)" rx="8" ry="8" style="stroke:#A80036;stroke-width:1.5;"/><path d="M271,22 L271,49 M258,30 L284,30 M271,49 L258,64 M271,49 L284,64 " fill="none" filter="url(#f1902w3fozq30x)" style="stroke:#A80036;stroke-width:1.5;"/><text fill="#000000" font-family="sans-serif" font-size="14" lengthAdjust="spacing" textLength="123" x="209.5" y="84.0332">Warehouse Worker</text><!--MD5=[62529e7d5259bf274c3bf3e446350d88]
entity Administrator--><ellipse cx="271" cy="368" fill="#FEFECE" filter="url(#f1902w3fozq30x)" rx="8" ry="8" style="stroke:#A80036;stroke-width:1.5;"/><path d="M271,376 L271,403 M258,384 L284,384 M271,403 L258,418 M271,403 L284,418 " fill="none" filter="url(#f1902w3fozq30x)" style="stroke:#A80036;stroke-width:1.5;"/><text fill="#000000" font-family="sans-serif" font-size="14" lengthAdjust="spacing" textLength="83" x="229.5" y="438.0332">Administrator</text><!--MD5=[581deacc50f69dcfb9c5403f5615af2f]
entity TransportationService--><ellipse cx="271" cy="486" fill="#FEFECE" filter="url(#f1902w3fozq30x)" rx="8" ry="8" style="stroke:#A80036;stroke-width:1.5;"/><path d="M271,494 L271,521 M258,502 L284,502 M271,521 L258,536 M271,521 L284,536 " fill="none" filter="url(#f1902w3fozq30x)" style="stroke:#A80036;stroke-width:1.5;"/><text fill="#000000" font-family="sans-serif" font-size="14" lengthAdjust="spacing" textLength="144" x="199" y="556.0332">Transportation Service</text><!--MD5=[bd1d2451411f8423ef53bf7cd5950653]
entity PayementService--><ellipse cx="271" cy="604" fill="#FEFECE" filter="url(#f1902w3fozq30x)" rx="8" ry="8" style="stroke:#A80036;stroke-width:1.5;"/><path d="M271,612 L271,639 M258,620 L284,620 M271,639 L258,654 M271,639 L284,654 " fill="none" filter="url(#f1902w3fozq30x)" style="stroke:#A80036;stroke-width:1.5;"/><text fill="#000000" font-family="sans-serif" font-size="14" lengthAdjust="spacing" textLength="106" x="218" y="674.0332">Payment Service</text><!--MD5=[b5ddd6e936a9a1e03330ce3826960d94]
entity CloudService--><ellipse cx="271" cy="722" fill="#FEFECE" filter="url(#f1902w3fozq30x)" rx="8" ry="8" style="stroke:#A80036;stroke-width:1.5;"/><path d="M271,730 L271,757 M258,738 L284,738 M271,757 L258,772 M271,757 L284,772 " fill="none" filter="url(#f1902w3fozq30x)" style="stroke:#A80036;stroke-width:1.5;"/><text fill="#000000" font-family="sans-serif" font-size="14" lengthAdjust="spacing" textLength="88" x="227" y="792.0332">Cloud Service</text><!--MD5=[b965324b13055cc57577893d88e32401]
link WarehouseManager to WarehouseWorker--><path d="M139.2,46 C155.22,46 172.53,46 189.16,46 " fill="none" id="WarehouseManager-to-WarehouseWorker" style="stroke:#A80036;stroke-width:1.0;"/><polygon fill="none" points="189.33,39,209.33,46,189.33,53,189.33,39" style="stroke:#A80036;stroke-width:1.0;"/><!--MD5=[58bc4c59b62416b11fbf6c43655a3d29]
link EZWH to QualityOffice--><path d="M104.2,331.78 C137.56,321.77 191.04,305.71 228.21,294.55 " fill="none" id="EZWH-QualityOffice" style="stroke:#A80036;stroke-width:1.0;"/><!--MD5=[e299f61e8cff26d54f91fca04dbbfb38]
link EZWH to TransportationService--><path d="M88.29,355.47 C111.49,378.03 158,422.75 199,459 C205.48,464.73 212.39,470.67 219.26,476.48 " fill="none" id="EZWH-TransportationService" style="stroke:#A80036;stroke-width:1.0;"/><!--MD5=[1f2f61639a8e17f5cc9253461edc3fda]
link EZWH to PayementService--><path d="M79.2,356.29 C94.38,395.74 138.81,503.03 199,577 C204.56,583.84 211.01,590.46 217.71,596.64 " fill="none" id="EZWH-PayementService" style="stroke:#A80036;stroke-width:1.0;"/><!--MD5=[b2dd5bbfdcc82c31beaa86127fa34ec6]
link EZWH to CloudService--><path d="M75.95,356.48 C84.79,408.48 118.79,580.02 199,695 C206.61,705.91 216.75,715.95 226.98,724.53 " fill="none" id="EZWH-CloudService" style="stroke:#A80036;stroke-width:1.0;"/><!--MD5=[5aef4143222e6ad9d1c4c7356690c10e]
link EZWH to WarehouseWorker--><path d="M82.98,326.02 C100.95,287.77 143.2,190.57 199,122 C208.91,109.82 221.64,98.32 233.58,87.81 " fill="none" id="EZWH-WarehouseWorker" style="stroke:#A80036;stroke-width:1.0;"/><!--MD5=[5aef4143222e6ad9d1c4c7356690c10e]
link EZWH to WarehouseWorker--><path d="M76.67,325.55 C88.82,281.96 135,165.64 199,87 C202.24,83.02 205.77,79.12 209.49,75.36 " fill="none" id="EZWH-WarehouseWorker-1" style="stroke:#A80036;stroke-width:1.0;"/><!--MD5=[c0e294a5209622ef47e776cb249bbb92]
link EZWH to RetailerManager--><path d="M88.29,326.53 C111.49,303.97 158,259.25 199,223 C205.48,217.27 212.39,211.33 219.26,205.52 " fill="none" id="EZWH-RetailerManager" style="stroke:#A80036;stroke-width:1.0;"/><!--MD5=[fa18b603a1e9fb46a35b064705ca335e]
link EZWH to Administrator--><path d="M104.2,350.22 C137.88,360.33 192.08,376.6 229.29,387.78 " fill="none" id="EZWH-Administrator" style="stroke:#A80036;stroke-width:1.0;"/><!--MD5=[c1d3cf867260150a16bc56635c57518f]
@startuml ContextDiagram
left to right direction
skinparam packagestyle rect

' Actors
actor "Warehouse Manager" as WarehouseManager
actor "Retailer Manager" as RetailerManager
actor "Quality Office" as QualityOffice
actor "Warehouse Worker" as WarehouseWorker
actor Administrator
actor "Transportation Service" as TransportationService
actor "Payment Service" as PayementService
actor "Cloud Service" as CloudService

' Associations
WarehouseManager - -|> WarehouseWorker
rectangle System{
	(EZWH) - - QualityOffice
	(EZWH) - - TransportationService
	(EZWH) - - PayementService
	(EZWH) - - CloudService
	(EZWH) - - WarehouseWorker
	(EZWH) - - RetailerManager
	(EZWH) - - WarehouseWorker
	(EZWH) - - Administrator

}
@enduml

@startuml ContextDiagram
left to right direction
skinparam packagestyle rect

actor "Warehouse Manager" as WarehouseManager
actor "Retailer Manager" as RetailerManager
actor "Quality Office" as QualityOffice
actor "Warehouse Worker" as WarehouseWorker
actor Administrator
actor "Transportation Service" as TransportationService
actor "Payment Service" as PayementService
actor "Cloud Service" as CloudService

WarehouseManager - -|> WarehouseWorker
rectangle System{
	(EZWH) - - QualityOffice
	(EZWH) - - TransportationService
	(EZWH) - - PayementService
	(EZWH) - - CloudService
	(EZWH) - - WarehouseWorker
	(EZWH) - - RetailerManager
	(EZWH) - - WarehouseWorker
	(EZWH) - - Administrator

}
@enduml

PlantUML version 1.2022.0(Tue Jan 11 17:16:42 CET 2022)
(GPL source distribution)
Java Runtime: Java(TM) SE Runtime Environment
JVM: Java HotSpot(TM) 64-Bit Server VM
Default Encoding: Cp1252
Language: it
Country: IT
--></g></svg>