<?xml version="1.0" encoding="UTF-8" standalone="no"?><svg xmlns="http://www.w3.org/2000/svg" xmlns:xlink="http://www.w3.org/1999/xlink" contentScriptType="application/ecmascript" contentStyleType="text/css" height="349px" preserveAspectRatio="none" style="width:641px;height:349px;background:#FFFFFF;" version="1.1" viewBox="0 0 641 349" width="641px" zoomAndPan="magnify"><defs><filter height="300%" id="f1rkd2div8tixh" width="300%" x="-1" y="-1"><feGaussianBlur result="blurOut" stdDeviation="2.0"/><feColorMatrix in="blurOut" result="blurOut2" type="matrix" values="0 0 0 0 0 0 0 0 0 0 0 0 0 0 0 0 0 0 .4 0"/><feOffset dx="4.0" dy="4.0" in="blurOut2" result="blurOut3"/><feBlend in="SourceGraphic" in2="blurOut3" mode="normal"/></filter></defs><g><!--MD5=[99b31deea5d7419a569cd5090bf83263]
cluster System--><rect fill="#FFFFFF" filter="url(#f1rkd2div8tixh)" height="83" style="stroke:#000000;stroke-width:1.5;" width="108" x="300" y="254.5"/><text fill="#000000" font-family="sans-serif" font-size="14" font-weight="bold" lengthAdjust="spacing" textLength="50" x="329" y="271.0332">System</text><ellipse cx="354.1482" cy="305.9517" fill="#FEFECE" filter="url(#f1rkd2div8tixh)" rx="37.6482" ry="15.4517" style="stroke:#A80036;stroke-width:1.5;"/><text fill="#000000" font-family="sans-serif" font-size="14" lengthAdjust="spacing" textLength="37" x="335.6482" y="309.6802">EzWH</text><!--MD5=[fee662a292a0353a69bd162820bae93b]
entity User--><ellipse cx="139" cy="14" fill="#FEFECE" filter="url(#f1rkd2div8tixh)" rx="8" ry="8" style="stroke:#A80036;stroke-width:1.5;"/><path d="M139,22 L139,49 M126,30 L152,30 M139,49 L126,64 M139,49 L152,64 " fill="none" filter="url(#f1rkd2div8tixh)" style="stroke:#A80036;stroke-width:1.5;"/><text fill="#000000" font-family="sans-serif" font-size="14" lengthAdjust="spacing" textLength="29" x="124.5" y="84.0332">User</text><!--MD5=[327d8b0cc9017ef0d2f4054fa6547e20]
entity Manager--><ellipse cx="34" cy="157" fill="#FEFECE" filter="url(#f1rkd2div8tixh)" rx="8" ry="8" style="stroke:#A80036;stroke-width:1.5;"/><path d="M34,165 L34,192 M21,173 L47,173 M34,192 L21,207 M34,192 L47,207 " fill="none" filter="url(#f1rkd2div8tixh)" style="stroke:#A80036;stroke-width:1.5;"/><text fill="#000000" font-family="sans-serif" font-size="14" lengthAdjust="spacing" textLength="56" x="6" y="227.0332">Manager</text><!--MD5=[62529e7d5259bf274c3bf3e446350d88]
entity Administrator--><ellipse cx="139" cy="157" fill="#FEFECE" filter="url(#f1rkd2div8tixh)" rx="8" ry="8" style="stroke:#A80036;stroke-width:1.5;"/><path d="M139,165 L139,192 M126,173 L152,173 M139,192 L126,207 M139,192 L152,207 " fill="none" filter="url(#f1rkd2div8tixh)" style="stroke:#A80036;stroke-width:1.5;"/><text fill="#000000" font-family="sans-serif" font-size="14" lengthAdjust="spacing" textLength="83" x="97.5" y="227.0332">Administrator</text><!--MD5=[1ca2de75bef3d0fcdc525ede790129b1]
entity PaymentService--><ellipse cx="276" cy="14" fill="#FEFECE" filter="url(#f1rkd2div8tixh)" rx="8" ry="8" style="stroke:#A80036;stroke-width:1.5;"/><path d="M276,22 L276,49 M263,30 L289,30 M276,49 L263,64 M276,49 L289,64 " fill="none" filter="url(#f1rkd2div8tixh)" style="stroke:#A80036;stroke-width:1.5;"/><text fill="#000000" font-family="sans-serif" font-size="14" lengthAdjust="spacing" textLength="102" x="225" y="84.0332">PaymentService</text><!--MD5=[b5ddd6e936a9a1e03330ce3826960d94]
entity CloudService--><ellipse cx="404" cy="14" fill="#FEFECE" filter="url(#f1rkd2div8tixh)" rx="8" ry="8" style="stroke:#A80036;stroke-width:1.5;"/><path d="M404,22 L404,49 M391,30 L417,30 M404,49 L391,64 M404,49 L417,64 " fill="none" filter="url(#f1rkd2div8tixh)" style="stroke:#A80036;stroke-width:1.5;"/><text fill="#000000" font-family="sans-serif" font-size="14" lengthAdjust="spacing" textLength="84" x="362" y="84.0332">CloudService</text><!--MD5=[8d050adf358ab0cec12e1e848bfb8576]
entity TransportationCompany--><ellipse cx="558" cy="14" fill="#FEFECE" filter="url(#f1rkd2div8tixh)" rx="8" ry="8" style="stroke:#A80036;stroke-width:1.5;"/><path d="M558,22 L558,49 M545,30 L571,30 M558,49 L545,64 M558,49 L571,64 " fill="none" filter="url(#f1rkd2div8tixh)" style="stroke:#A80036;stroke-width:1.5;"/><text fill="#000000" font-family="sans-serif" font-size="14" lengthAdjust="spacing" textLength="153" x="481.5" y="84.0332">TransportationCompany</text><!--MD5=[db25c41ae6377e017d9f6f1472547e10]
reverse link User to Manager--><path d="M112.35,82.79 C96.98,103.43 77.68,129.34 62.08,150.29 " fill="none" id="User-backto-Manager" style="stroke:#A80036;stroke-width:1.0;"/><polygon fill="none" points="106.84,78.47,124.4,66.61,118.07,86.83,106.84,78.47" style="stroke:#A80036;stroke-width:1.0;"/><!--MD5=[b4e501b81d36e0a0ad004b01a879159d]
reverse link User to Administrator--><path d="M139,108.01 C139,121.29 139,135.04 139,147.31 " fill="none" id="User-backto-Administrator" style="stroke:#A80036;stroke-width:1.0;"/><polygon fill="none" points="132,107.78,139,87.78,146,107.78,132,107.78" style="stroke:#A80036;stroke-width:1.0;"/><!--MD5=[97d4815a5ee17cc509c3de6c262f4e56]
link User to EZWareHouse--><path d="M153.78,64.73 C194.19,113.23 305.96,247.36 342.37,291.05 " fill="none" id="User-EZWareHouse" style="stroke:#A80036;stroke-width:1.0;"/><!--MD5=[9e834063d82bf9f143f6737b4992f66f]
link PaymentService to EZWareHouse--><path d="M288.27,87.6 C305.99,146.2 337.89,251.72 349.57,290.33 " fill="none" id="PaymentService-EZWareHouse" style="stroke:#A80036;stroke-width:1.0;"/><!--MD5=[5dd6ce7bfab72c8c91c62efa0d35bf68]
link CloudService to EZWareHouse--><path d="M396.13,87.6 C384.77,146.2 364.33,251.72 356.84,290.33 " fill="none" id="CloudService-EZWareHouse" style="stroke:#A80036;stroke-width:1.0;"/><!--MD5=[99a61cafba6566ef280dc3ee6ca73fe8]
link TransportationCompany to EZWareHouse--><path d="M525.9,87.6 C479.22,146.63 394.92,253.25 364.94,291.16 " fill="none" id="TransportationCompany-EZWareHouse" style="stroke:#A80036;stroke-width:1.0;"/><!--MD5=[b9fd3b40aaf1f7f9201058b5b927d64c]
@startuml ContextDiagram

rectangle System{
	usecase "EzWH" as EZWareHouse
}

User <|- - Manager
User <|- - Administrator
User - - - EZWareHouse

PaymentService - - - EZWareHouse
CloudService - - - EZWareHouse
TransportationCompany - - - EZWareHouse
@enduml

PlantUML version 1.2022.0(Tue Jan 11 17:16:42 CET 2022)
(GPL source distribution)
Java Runtime: Java(TM) SE Runtime Environment
JVM: Java HotSpot(TM) 64-Bit Server VM
Default Encoding: Cp1252
Language: it
Country: IT
--></g></svg>